<?xml version="1.0" encoding="UTF-8"?>
<svg version="1.1" xmlns="http://www.w3.org/2000/svg" width="96" height="40">
<path d="M0 0 C4.62 0 9.24 0 14 0 C15 5 15 5 13.82836914 7.12817383 C12.94072876 8.15720825 12.94072876 8.15720825 12.03515625 9.20703125 C11.40029297 9.95791016 10.76542969 10.70878906 10.11132812 11.48242188 C9.43521484 12.25134766 8.75910156 13.02027344 8.0625 13.8125 C7.39025391 14.60076172 6.71800781 15.38902344 6.02539062 16.20117188 C4.36337143 18.14608796 2.68829383 20.07789855 1 22 C3.64 22.33 6.28 22.66 9 23 C9.268125 21.906875 9.53625 20.81375 9.8125 19.6875 C11.4351145 14.64885496 11.4351145 14.64885496 14 13 C17.70073869 12.11504075 21.20455367 11.88836923 25 12 C26.15837626 16.05431692 25.83691257 18.21812119 24 22 C26.31 22.33 28.62 22.66 31 23 C31 24.32 31 25.64 31 27 C23.66666667 27 16.33333333 27 9 27 C7.48394165 27.01571045 7.48394165 27.01571045 5.93725586 27.03173828 C2.64686567 27.06583559 -0.64334007 27.09077022 -3.93383789 27.10986328 C-5.35476618 27.11996737 -6.77567346 27.13364848 -8.1965332 27.15087891 C-10.24695922 27.17507692 -12.2971138 27.18646588 -14.34765625 27.1953125 C-15.57492432 27.20578613 -16.80219238 27.21625977 -18.06665039 27.22705078 C-21 27 -21 27 -23 25 C-23.40463534 21.91465557 -23.6285158 19.96138528 -23 17 C-20.29911306 13.67583146 -18.84457784 12.23094714 -14.59765625 11.69921875 C-12.37395331 11.68867987 -10.21178612 11.77882139 -8 12 C-6.84162374 16.05431692 -7.16308743 18.21812119 -9 22 C-8.34 22 -7.68 22 -7 22 C-5.08971065 19.93346785 -3.2850699 17.85772064 -1.5 15.6875 C-1.00113281 15.09259766 -0.50226562 14.49769531 0.01171875 13.88476562 C2.15662919 11.31144814 4.137621 8.7935685 6 6 C3.69 5.34 1.38 4.68 -1 4 C-0.67 2.68 -0.34 1.36 0 0 Z M-16 17 C-16.66 17.66 -17.32 18.32 -18 19 C-17.6814823 21.10820797 -17.6814823 21.10820797 -17 23 C-15.43750191 21.68798827 -15.43750191 21.68798827 -14 20 C-14 19.01 -14 18.02 -14 17 C-14.66 17 -15.32 17 -16 17 Z M17 17 C16.34 17.66 15.68 18.32 15 19 C15.3185177 21.10820797 15.3185177 21.10820797 16 23 C17.56249809 21.68798827 17.56249809 21.68798827 19 20 C19 19.01 19 18.02 19 17 C18.34 17 17.68 17 17 17 Z " fill="#27C8C1" transform="translate(61,3)"/>
<path d="M0 0 C2.10304477 -0.1080023 4.20766909 -0.18558987 6.3125 -0.25 C8.07013672 -0.31960937 8.07013672 -0.31960937 9.86328125 -0.390625 C13 0 13 0 14.9296875 1.82421875 C16.44054351 4.89555742 15.89729034 6.75595032 15 10 C14.34 10.99 13.68 11.98 13 13 C13.185625 14.11375 13.37125 15.2275 13.5625 16.375 C14 20 14 20 12.8125 22.8125 C10.84277523 25.18975404 9.91638664 26.05414487 7 27 C5.66696343 27.08795293 4.33358678 27.17082602 3 27.25 C0.90387875 27.39154551 0.90387875 27.39154551 -1 28 C-3.3015039 30.86875539 -3.3015039 30.86875539 -5 34 C-7.77671139 36.20221938 -9.00536426 35.99963005 -12.625 35.75 C-16 35 -16 35 -18 33 C-18.56427819 26.79293994 -18.56427819 26.79293994 -16.8046875 24.3203125 C-13.37009584 21.80755929 -9.13253927 22.26834671 -5 22 C-2.69 16.39 -0.38 10.78 2 5 C1.01 4.67 0.02 4.34 -1 4 C-0.67 2.68 -0.34 1.36 0 0 Z M8 5 C7.34 6.65 6.68 8.3 6 10 C7.32 9.34 8.64 8.68 10 8 C10 7.01 10 6.02 10 5 C9.34 5 8.68 5 8 5 Z M4 15 C1.7986134 18.80427492 1.7986134 18.80427492 1 23 C3.97017694 22.37189827 3.97017694 22.37189827 7 21 C8.43923199 18.49004504 8.43923199 18.49004504 9 16 C7.35 15.67 5.7 15.34 4 15 Z M-13 28 C-12.67 28.99 -12.34 29.98 -12 31 C-10.01508358 30.73323796 -10.01508358 30.73323796 -8 30 C-7.67 29.01 -7.34 28.02 -7 27 C-10.7763932 26.7018576 -10.7763932 26.7018576 -13 28 Z " fill="#0DB4F1" transform="translate(23,3)"/>
<path d="M0 0 C2.31 0 4.62 0 7 0 C7 1.32 7 2.64 7 4 C4.03 4 1.06 4 -2 4 C-1.34 2.68 -0.68 1.36 0 0 Z " fill="#5BF35F" transform="translate(85,26)"/>
</svg>
