<svg width="32" height="32" viewBox="0 0 32 32" fill="none" xmlns="http://www.w3.org/2000/svg">
<path d="M24 10C23.4 8.2 21.7 7 19.8 7H8.2C6.3 7 4.6 8.2 4 10L2 16V24C2 25.1 2.9 26 4 26H6C7.1 26 8 25.1 8 24V23H20V24C20 25.1 20.9 26 22 26H24C25.1 26 26 25.1 26 24V16L24 10ZM7.5 18C6.7 18 6 17.3 6 16.5C6 15.7 6.7 15 7.5 15C8.3 15 9 15.7 9 16.5C9 17.3 8.3 18 7.5 18ZM20.5 18C19.7 18 19 17.3 19 16.5C19 15.7 19.7 15 20.5 15C21.3 15 22 15.7 22 16.5C22 17.3 21.3 18 20.5 18ZM6 11L7.5 8H20.5L22 11H6Z" fill="#3563E9"/>
</svg>
