<?xml version="1.0" encoding="UTF-8"?>
<svg version="1.1" xmlns="http://www.w3.org/2000/svg" width="256" height="256">
<path d="M0 0 C84.48 0 168.96 0 256 0 C256 84.48 256 168.96 256 256 C171.52 256 87.04 256 0 256 C0 171.52 0 87.04 0 0 Z " fill="#00776A" transform="translate(0,0)"/>
<path d="M0 0 C38.61 0 77.22 0 117 0 C117 9.9 117 19.8 117 30 C91.59 30 66.18 30 40 30 C40 38.25 40 46.5 40 55 C62.77 55 85.54 55 109 55 C109 64.9 109 74.8 109 85 C86.56 85 64.12 85 41 85 C41 92.92 41 100.84 41 109 C66.08 109 91.16 109 117 109 C117 119.23 117 129.46 117 140 C78.39 140 39.78 140 0 140 C0 93.8 0 47.6 0 0 Z " fill="#FDFEFE" transform="translate(70,58)"/>
</svg>
