<?xml version="1.0" encoding="UTF-8"?>
<svg version="1.1" xmlns="http://www.w3.org/2000/svg" width="512" height="512">
<path d="M0 0 C0.90807404 -0.00671722 1.81614807 -0.01343445 2.7517395 -0.02035522 C5.74210129 -0.03929455 8.73223829 -0.04325695 11.72265625 -0.04541016 C13.80721122 -0.05183938 15.89176528 -0.05856784 17.97631836 -0.06558228 C22.34067884 -0.07754376 26.70496022 -0.0812641 31.06933594 -0.08007812 C36.6581019 -0.07987465 42.24636098 -0.10721129 47.83500671 -0.14162254 C52.13816657 -0.16386859 56.44120381 -0.16791642 60.74441528 -0.16685867 C62.80487825 -0.16921676 64.8653445 -0.17805192 66.92575073 -0.19352341 C69.80763249 -0.21314277 72.68841261 -0.20736183 75.5703125 -0.1953125 C76.418284 -0.20655151 77.26625549 -0.21779053 78.1399231 -0.22937012 C85.9476091 -0.14651385 90.14306904 3.37937045 95.52734375 8.83740234 C96.78417969 10.10390625 96.78417969 10.10390625 98.06640625 11.39599609 C98.92234375 12.26869141 99.77828125 13.14138672 100.66015625 14.04052734 C101.53929687 14.92869141 102.4184375 15.81685547 103.32421875 16.73193359 C105.48248144 18.91365566 107.63591793 21.0999208 109.78515625 23.29052734 C113.31838797 21.79000425 115.53052141 19.75252835 118.19140625 17.00927734 C119.43083984 15.74664062 119.43083984 15.74664062 120.6953125 14.45849609 C121.54996094 13.57806641 122.40460938 12.69763672 123.28515625 11.79052734 C124.9783051 10.04630312 126.67604333 8.30651913 128.37890625 6.57177734 C129.12849609 5.79898438 129.87808594 5.02619141 130.65039062 4.22998047 C134.38933286 0.83311895 137.19314128 0.04063645 142.21853161 0.03325844 C143.32866531 0.02680955 144.438799 0.02036065 145.58257312 0.01371634 C147.41186979 0.01836215 147.41186979 0.01836215 149.27812195 0.02310181 C150.57375921 0.01857069 151.86939646 0.01403958 153.20429546 0.00937116 C156.80360855 -0.00287997 160.40282885 -0.00259589 164.00215805 -0.00024009 C167.88301969 0.00016756 171.76385137 -0.01086619 175.6446991 -0.02035522 C183.24989476 -0.03697872 190.85505943 -0.04246542 198.46027174 -0.04357998 C204.64288455 -0.04453 210.82548712 -0.04863797 217.00809669 -0.05498123 C234.53621236 -0.07259879 252.06430353 -0.08181952 269.59242811 -0.08032028 C270.53766658 -0.08024037 271.48290505 -0.08016046 272.45678711 -0.08007812 C273.87637616 -0.07995548 273.87637616 -0.07995548 275.32464377 -0.07983036 C290.65695238 -0.07901774 305.98916268 -0.09814815 321.32144286 -0.12635486 C337.06382272 -0.15508744 352.80615465 -0.16889489 368.54856139 -0.16716731 C377.38693091 -0.16650344 386.22519742 -0.17199389 395.06354332 -0.19352341 C402.59030468 -0.21174033 410.11691638 -0.21607852 417.64369025 -0.20250456 C421.48281797 -0.19597691 425.32165861 -0.19585 429.16075897 -0.21321106 C433.32648039 -0.231855 437.49153791 -0.21938173 441.65727234 -0.20394897 C442.86564985 -0.2142361 444.07402735 -0.22452323 445.31902236 -0.23512208 C455.03858885 -0.15552914 463.59646531 2.48018856 470.78515625 9.29052734 C477.81582189 18.03836017 479.08198253 25.4882982 479.05258179 36.49250793 C479.0571129 37.73268431 479.06164401 38.97286068 479.06631243 40.25061816 C479.07677494 43.68583446 479.07828361 47.12084121 479.07592368 50.55605853 C479.07551517 54.26374153 479.08655793 57.97139342 479.09603882 61.67906189 C479.11264222 68.9404108 479.11814806 76.20172725 479.11926357 83.46309356 C479.12021435 89.36629179 479.12432611 95.26947933 479.13066483 101.17267418 C479.14827533 117.91424839 479.15750398 134.65579697 479.15600388 151.39738051 C479.15588401 152.7508151 479.15588401 152.7508151 479.15576172 154.1315918 C479.15567996 155.03498488 479.1555982 155.93837797 479.15551396 156.86914661 C479.15470108 171.50941171 479.17383966 186.14957392 479.20203845 200.78980926 C479.23077322 215.82712503 479.24457842 230.86439062 479.2428509 245.90173453 C479.24218721 254.34212984 479.24767031 262.78241729 479.269207 271.22278786 C479.2874266 278.40914335 479.29175977 285.59534207 479.27818815 292.78171066 C479.27166241 296.44668435 479.2715267 300.11135734 479.28889465 303.77630234 C479.30754832 307.75353902 479.29506046 311.73033771 479.27963257 315.70759583 C479.28991969 316.86013582 479.30020682 318.01267581 479.31080568 319.20014125 C479.229012 328.74379639 476.46207094 337.24267295 469.78515625 344.29052734 C463.47763975 349.35990172 457.32980838 352.53572063 449.0973053 352.54779625 C447.98133941 352.55424514 446.86537352 352.56069403 445.71559048 352.56733835 C443.89196279 352.56269254 443.89196279 352.56269254 442.03149414 352.55795288 C440.73203134 352.56248399 439.43256853 352.56701511 438.09372807 352.57168353 C434.49314174 352.58390399 430.8926484 352.58365421 427.29204607 352.58129478 C423.40650536 352.58088638 419.52099437 352.59192775 415.63546753 352.60140991 C408.02620527 352.61801443 400.41697401 352.62351916 392.80769515 352.62463467 C386.6236742 352.62558517 380.43966347 352.62969558 374.25564575 352.63603592 C356.7241494 352.65364496 339.19267753 352.66287504 321.66117227 352.66137497 C320.24382852 352.6612551 320.24382852 352.6612551 318.79785156 352.66113281 C317.85180294 352.66105105 316.90575431 352.66096929 315.93103755 352.66088505 C300.59036295 352.66007171 285.24978644 352.67922241 269.90914023 352.70740955 C254.15880146 352.73612131 238.40851056 352.74995086 222.65814495 352.74822199 C213.81487065 352.74755762 204.97169923 352.75307103 196.12844849 352.77457809 C188.60128386 352.79276719 181.07426879 352.7971558 173.54709172 352.78355925 C169.7062966 352.77701873 165.8657886 352.77695124 162.0250206 352.79426575 C157.8627347 352.81283697 153.70111673 352.80047085 149.53881836 352.78500366 C148.32306657 352.79529079 147.10731478 352.80557791 145.85472202 352.81617677 C136.36246754 352.73794331 132.68390185 350.47555713 126.04296875 343.74365234 C125.20507812 342.89931641 124.3671875 342.05498047 123.50390625 341.18505859 C122.22 339.87601562 122.22 339.87601562 120.91015625 338.54052734 C120.03101563 337.65236328 119.151875 336.76419922 118.24609375 335.84912109 C116.08783106 333.66739903 113.93439457 331.48113388 111.78515625 329.29052734 C108.25192453 330.79105044 106.03979109 332.82852634 103.37890625 335.57177734 C102.55261719 336.41353516 101.72632813 337.25529297 100.875 338.12255859 C99.59302734 339.44320312 99.59302734 339.44320312 98.28515625 340.79052734 C96.5920074 342.53475157 94.89426917 344.27453556 93.19140625 346.00927734 C92.44181641 346.78207031 91.69222656 347.55486328 90.91992188 348.35107422 C86.2543225 352.5898118 81.94609848 352.58755701 75.8449707 352.58105469 C74.9420076 352.58777191 74.03904449 352.59448914 73.10871887 352.60140991 C70.12190247 352.62041485 67.13531062 352.62431585 64.1484375 352.62646484 C62.06821094 352.63289271 59.98798528 352.63962106 57.90776062 352.64663696 C53.54403591 352.65861717 49.18039039 352.66231719 44.81665039 352.66113281 C39.23933084 352.66092997 33.66252282 352.68819335 28.08532429 352.72267723 C23.78632807 352.74497814 19.48745412 352.74896932 15.18840599 352.74791336 C13.13321361 352.750266 11.07801768 352.75907042 9.02288246 352.77457809 C6.13900234 352.79429559 3.25621424 352.7883766 0.37231445 352.77636719 C-0.46801331 352.7876062 -1.30834106 352.79884521 -2.1741333 352.8104248 C-10.73113604 352.72041536 -18.96867536 349.20795003 -25.21484375 343.29052734 C-32.24550939 334.54269452 -33.51167003 327.09275649 -33.48226929 316.08854675 C-33.4868004 314.84837038 -33.49133151 313.608194 -33.49599993 312.33043653 C-33.50646244 308.89522023 -33.50797111 305.46021348 -33.50561118 302.02499616 C-33.50520267 298.31731316 -33.51624543 294.60966127 -33.52572632 290.9019928 C-33.54232972 283.64064388 -33.54783556 276.37932744 -33.54895107 269.11796113 C-33.54990185 263.21476289 -33.55401361 257.31157536 -33.56035233 251.40838051 C-33.57796283 234.6668063 -33.58719148 217.92525772 -33.58569138 201.18367418 C-33.58561147 200.28138445 -33.58553155 199.37909473 -33.58544922 198.44946289 C-33.58536746 197.5460698 -33.5852857 196.64267672 -33.58520146 195.71190808 C-33.58438858 181.07164298 -33.60352716 166.43148077 -33.63172595 151.79124542 C-33.66046072 136.75392966 -33.67426592 121.71666407 -33.6725384 106.67932016 C-33.67187471 98.23892484 -33.67735781 89.7986374 -33.6988945 81.35826683 C-33.7171141 74.17191134 -33.72144727 66.98571262 -33.70787565 59.79934403 C-33.70134991 56.13437034 -33.7012142 52.46969735 -33.71858215 48.80475235 C-33.73723582 44.82751567 -33.72474796 40.85071698 -33.70932007 36.87345886 C-33.71960719 35.72091887 -33.72989432 34.56837888 -33.74049318 33.38091344 C-33.6586995 23.83725829 -30.89175844 15.33838174 -24.21484375 8.29052734 C-16.53802566 2.12064021 -9.72662525 -0.01039651 0 0 Z M94.78515625 64.29052734 C94.78515625 74.85052734 94.78515625 85.41052734 94.78515625 96.29052734 C105.34515625 96.29052734 115.90515625 96.29052734 126.78515625 96.29052734 C126.78515625 85.73052734 126.78515625 75.17052734 126.78515625 64.29052734 C116.22515625 64.29052734 105.66515625 64.29052734 94.78515625 64.29052734 Z M202.37890625 81.35302734 C192.53625501 93.31860336 190.31994993 106.21687181 191.78515625 121.29052734 C194.12556854 133.68914009 201.89229677 144.63753339 212.09765625 151.94677734 C224.180263 159.64943915 237.25562406 161.27812443 251.26171875 158.63427734 C264.28440959 154.73083513 274.91252872 145.64123007 281.49609375 133.86474609 C287.12317496 122.62763543 287.83554997 108.8438883 284.22265625 96.79052734 C278.84181819 83.09212622 268.71727648 73.38324885 255.5546875 67.25146484 C236.4065808 60.1986338 215.98296544 66.97892707 202.37890625 81.35302734 Z M340.16796875 87.37255859 C337.57759777 90.54470142 334.93832758 93.67096029 332.28515625 96.79052734 C328.91218688 100.75944623 325.57338647 104.75070165 322.28515625 108.79052734 C318.53727827 113.39506315 314.71532181 117.93071926 310.87109375 122.45458984 C307.97270802 125.87112274 305.11360525 129.31557572 302.28515625 132.79052734 C298.53727827 137.39506315 294.71532181 141.93071926 290.87109375 146.45458984 C287.97270802 149.87112274 285.11360525 153.31557572 282.28515625 156.79052734 C278.53727827 161.39506315 274.71532181 165.93071926 270.87109375 170.45458984 C267.97270802 173.87112274 265.11360525 177.31557572 262.28515625 180.79052734 C258.53727827 185.39506315 254.71532181 189.93071926 250.87109375 194.45458984 C247.97270802 197.87112274 245.11360525 201.31557572 242.28515625 204.79052734 C238.53727827 209.39506315 234.71532181 213.93071926 230.87109375 218.45458984 C227.97270802 221.87112274 225.11360525 225.31557572 222.28515625 228.79052734 C218.99690791 232.83037531 215.65740679 236.82097996 212.28515625 240.79052734 C204.93467846 249.45758399 204.93467846 249.45758399 197.78515625 258.29052734 C197.16125 259.06009766 196.53734375 259.82966797 195.89453125 260.62255859 C192.33844628 265.36677476 190.92411365 269.01785735 191.33203125 274.99755859 C192.29027761 279.84661559 194.84883783 282.44338211 198.41015625 285.66552734 C203.00134696 287.87610065 206.77736311 288.0634872 211.78515625 287.29052734 C220.77988838 283.25207618 227.33036168 272.70855758 233.40234375 265.20849609 C235.99271473 262.03635327 238.63198492 258.9100944 241.28515625 255.79052734 C244.65812562 251.82160846 247.99692603 247.83035304 251.28515625 243.79052734 C255.03303423 239.18599154 258.85499069 234.65033543 262.69921875 230.12646484 C265.59760448 226.70993195 268.45670725 223.26547897 271.28515625 219.79052734 C275.03303423 215.18599154 278.85499069 210.65033543 282.69921875 206.12646484 C285.59760448 202.70993195 288.45670725 199.26547897 291.28515625 195.79052734 C295.03303423 191.18599154 298.85499069 186.65033543 302.69921875 182.12646484 C305.59760448 178.70993195 308.45670725 175.26547897 311.28515625 171.79052734 C315.03303423 167.18599154 318.85499069 162.65033543 322.69921875 158.12646484 C325.59760448 154.70993195 328.45670725 151.26547897 331.28515625 147.79052734 C335.03303423 143.18599154 338.85499069 138.65033543 342.69921875 134.12646484 C345.59760448 130.70993195 348.45670725 127.26547897 351.28515625 123.79052734 C354.57340459 119.75067938 357.91290571 115.76007473 361.28515625 111.79052734 C368.63563404 103.1234707 368.63563404 103.1234707 375.78515625 94.29052734 C376.72101563 93.13617188 376.72101563 93.13617188 377.67578125 91.95849609 C381.23186622 87.21427993 382.64619885 83.56319733 382.23828125 77.58349609 C381.28003489 72.7344391 378.72147467 70.13767258 375.16015625 66.91552734 C359.02336017 59.14595886 349.03179595 76.42403336 340.16796875 87.37255859 Z M94.78515625 128.29052734 C94.78515625 138.85052734 94.78515625 149.41052734 94.78515625 160.29052734 C105.34515625 160.29052734 115.90515625 160.29052734 126.78515625 160.29052734 C126.78515625 149.73052734 126.78515625 139.17052734 126.78515625 128.29052734 C116.22515625 128.29052734 105.66515625 128.29052734 94.78515625 128.29052734 Z M94.78515625 192.29052734 C94.78515625 202.85052734 94.78515625 213.41052734 94.78515625 224.29052734 C105.34515625 224.29052734 115.90515625 224.29052734 126.78515625 224.29052734 C126.78515625 213.73052734 126.78515625 203.17052734 126.78515625 192.29052734 C116.22515625 192.29052734 105.66515625 192.29052734 94.78515625 192.29052734 Z M298.37890625 209.35302734 C288.53625501 221.31860336 286.31994993 234.21687181 287.78515625 249.29052734 C290.12556854 261.68914009 297.89229677 272.63753339 308.09765625 279.94677734 C320.180263 287.64943915 333.25562406 289.27812443 347.26171875 286.63427734 C360.28440959 282.73083513 370.91252872 273.64123007 377.49609375 261.86474609 C383.12317496 250.62763543 383.83554997 236.8438883 380.22265625 224.79052734 C374.84181819 211.09212622 364.71727648 201.38324885 351.5546875 195.25146484 C332.4065808 188.1986338 311.98296544 194.97892707 298.37890625 209.35302734 Z M94.78515625 256.29052734 C94.78515625 266.85052734 94.78515625 277.41052734 94.78515625 288.29052734 C105.34515625 288.29052734 115.90515625 288.29052734 126.78515625 288.29052734 C126.78515625 277.73052734 126.78515625 267.17052734 126.78515625 256.29052734 C116.22515625 256.29052734 105.66515625 256.29052734 94.78515625 256.29052734 Z " fill="#000000" transform="translate(33.21484375,79.70947265625)"/>
<path d="M0 0 C4.8846525 2.26787438 7.73212562 5.1153475 10 10 C10.75381535 15.5997712 10.77303575 20.33499991 8.375 25.5 C3.80134327 30.3143755 0.6912538 32.25156236 -6 32.5 C-12.6912538 32.25156236 -15.80134327 30.3143755 -20.375 25.5 C-22.77303575 20.33499991 -22.75381535 15.5997712 -22 10 C-17.52212837 0.3553534 -9.85292056 -1.32635469 0 0 Z " fill="#000000" transform="translate(374,304)"/>
<path d="M0 0 C4.8846525 2.26787438 7.73212562 5.1153475 10 10 C10.75381535 15.5997712 10.77303575 20.33499991 8.375 25.5 C3.80134327 30.3143755 0.6912538 32.25156236 -6 32.5 C-12.6912538 32.25156236 -15.80134327 30.3143755 -20.375 25.5 C-22.77303575 20.33499991 -22.75381535 15.5997712 -22 10 C-17.52212837 0.3553534 -9.85292056 -1.32635469 0 0 Z " fill="#000000" transform="translate(278,176)"/>
</svg>
