<?xml version="1.0" encoding="UTF-8"?>
<svg version="1.1" xmlns="http://www.w3.org/2000/svg" width="512" height="512">
<path d="M0 0 C1.43458282 -0.00668677 1.43458282 -0.00668677 2.89814711 -0.01350862 C3.94083518 -0.01332426 4.98352324 -0.01313989 6.05780792 -0.01294994 C7.17180104 -0.01662663 8.28579415 -0.02030332 9.43354464 -0.02409142 C13.17422982 -0.03512289 16.91488723 -0.03897123 20.65558624 -0.04278088 C23.33470576 -0.04904598 26.01382231 -0.0556802 28.69293976 -0.0626936 C36.73844479 -0.08243327 44.78395103 -0.0925215 52.82947421 -0.10142139 C56.62230686 -0.10580878 60.41513811 -0.11117445 64.20796967 -0.11641026 C76.82347829 -0.13342079 89.43898606 -0.14791336 102.05450439 -0.155159 C105.32647961 -0.15706876 108.59845481 -0.15898911 111.87042999 -0.16094494 C113.09021635 -0.16167055 113.09021635 -0.16167055 114.33464485 -0.16241082 C127.49790261 -0.17070517 140.66106932 -0.19603279 153.82428735 -0.22852562 C167.35188869 -0.26164445 180.87944382 -0.27961215 194.4070859 -0.28280324 C201.99697041 -0.28496398 209.58672219 -0.29364845 217.17656708 -0.31926441 C223.64258396 -0.34103754 230.10843586 -0.34898955 236.57448524 -0.33929763 C239.86936116 -0.33477177 243.16382828 -0.33874826 246.45867157 -0.35605907 C278.99866199 -0.51740165 278.99866199 -0.51740165 291.14191437 11.13422108 C300.46382068 20.37252285 303.35286736 30.53095808 303.41872537 43.4041664 C303.41578354 44.79019313 303.41264814 46.17621946 303.4093399 47.56224537 C303.41307866 49.04466493 303.41768108 50.52708251 303.42307055 52.00949699 C303.43528832 56.07510345 303.43504152 60.14062754 303.4326818 64.20624816 C303.43227332 68.5942749 303.44331582 72.98227535 303.45279694 77.3702898 C303.46940163 85.96468791 303.47490626 94.55905857 303.47602169 103.15347137 C303.4769725 110.14119221 303.48108443 117.128904 303.48742294 124.11662197 C303.50503456 143.93599179 303.51426204 163.75533996 303.512762 183.57471766 C303.51268208 184.64292557 303.51260217 185.71113347 303.51251984 186.81171131 C303.51243808 187.88122639 303.51235631 188.95074148 303.51227207 190.05266611 C303.51145939 207.3809091 303.53059294 224.70906512 303.55879657 242.03728297 C303.5875394 259.83752405 303.60133607 277.63772275 303.59960902 295.43798763 C303.59894556 305.42832411 303.60441841 315.41856944 303.62596512 325.408885 C303.64419539 333.91593771 303.64850914 342.42285796 303.63494627 350.92992177 C303.62842571 355.26764556 303.62826629 359.60511535 303.64565277 363.94281483 C303.66142928 367.91987737 303.65847358 371.89648551 303.64108451 375.87353728 C303.63802462 377.30623937 303.64160863 378.73897577 303.65280466 380.17163738 C303.75958782 394.81481795 300.61878358 405.18754948 290.52082062 415.84515858 C283.43985062 422.53557148 273.97112698 426.25100007 264.2754488 426.26564884 C263.31721016 426.26948999 262.35897152 426.27333113 261.37169534 426.27728868 C260.32696091 426.27642219 259.28222648 426.27555571 258.20583344 426.27466297 C257.08972362 426.27763409 255.97361381 426.28060522 254.82368249 426.28366637 C251.07599246 426.29235235 247.32833437 426.29386154 243.58063507 426.29535389 C240.89664815 426.29998213 238.21266412 426.30498628 235.52867889 426.31039906 C228.23101727 426.32396932 220.93336116 426.33000511 213.63568902 426.33440971 C209.076806 426.33717445 204.51792509 426.34141224 199.9590435 426.34591389 C187.33065963 426.35810504 174.70227745 426.36840453 162.07388783 426.37178898 C161.26595357 426.37200854 160.45801931 426.37222811 159.6256022 426.37245433 C158.41084121 426.37278175 158.41084121 426.37278175 157.1715396 426.37311578 C155.53056101 426.37355924 153.88958241 426.3740058 152.24860382 426.37445545 C151.43462599 426.37467688 150.62064815 426.37489831 149.78200432 426.37512645 C136.59733832 426.37907313 123.41272763 426.39652388 110.22808299 426.41981497 C96.68354558 426.44354819 83.1390359 426.45599173 69.59447736 426.4571569 C61.99297808 426.45807257 54.39155087 426.46379768 46.79007149 426.48197651 C40.31630096 426.49740414 33.84262478 426.50248231 27.36883936 426.49423841 C24.068325 426.49034122 20.76803949 426.49285979 17.46754074 426.50529575 C13.8825024 426.51801001 10.29794868 426.51214066 6.71291351 426.50171375 C5.67933269 426.50977016 4.64575187 426.51782656 3.58085042 426.5261271 C-8.05167625 426.44720367 -18.50047415 423.05337659 -27.12371063 415.02484608 C-31.31217077 410.52612964 -34.70287601 405.91701126 -36.85808563 400.13422108 C-37.19884439 399.23313209 -37.53960316 398.33204309 -37.89068794 397.40364838 C-39.58872248 391.33386657 -39.14042639 384.95510714 -39.12551117 378.70619678 C-39.12924992 377.22377723 -39.13385235 375.74135964 -39.13924181 374.25894517 C-39.15145958 370.19333871 -39.15121279 366.12781461 -39.14885306 362.06219399 C-39.14844458 357.67416725 -39.15948709 353.28616681 -39.1689682 348.89815235 C-39.18557289 340.30375425 -39.19107752 331.70938358 -39.19219296 323.11497078 C-39.19314376 316.12724995 -39.19725569 309.13953816 -39.20359421 302.15182018 C-39.22120583 282.33245036 -39.2304333 262.51310219 -39.22893326 242.69372449 C-39.22885335 241.62551659 -39.22877344 240.55730868 -39.2286911 239.45673084 C-39.22860934 238.38721576 -39.22852758 237.31770068 -39.22844334 236.21577605 C-39.22763065 218.88753306 -39.2467642 201.55937703 -39.27496783 184.23115919 C-39.30371066 166.4309181 -39.31750733 148.63071941 -39.31578028 130.83045453 C-39.31511682 120.84011804 -39.32058968 110.84987271 -39.34213638 100.85955715 C-39.36036666 92.35250444 -39.36468041 83.84558419 -39.35111754 75.33852039 C-39.34459697 71.0007966 -39.34443756 66.6633268 -39.36182404 62.32562733 C-39.37760054 58.34856478 -39.37464485 54.37195664 -39.35725577 50.39490487 C-39.35419588 48.96220278 -39.3577799 47.52946639 -39.36897592 46.09680478 C-39.47575909 31.4536242 -36.33495484 21.08089268 -26.23699188 10.42328358 C-19.15814703 3.73487861 -9.69250215 0.02105379 0 0 Z M22.14191437 40.13422108 C19.61629788 43.9226458 19.88799864 46.91955437 19.94660187 51.30218983 C19.95084671 52.49440899 19.95084671 52.49440899 19.95517731 53.71071339 C19.96636732 56.24786946 19.99146946 58.7846718 20.01691437 61.32172108 C20.02694571 63.0424191 20.03607129 64.76312266 20.04425812 66.48383045 C20.06630276 70.70076351 20.1008243 74.91743233 20.14191437 79.13422108 C19.4410672 79.11327381 18.74022003 79.09232655 18.01813507 79.07074451 C14.83037517 78.98739059 11.64284485 78.93549968 8.45441437 78.88422108 C7.3516214 78.85070545 6.24882843 78.81718983 5.11261749 78.78265858 C3.51256866 78.76332264 3.51256866 78.76332264 1.88019562 78.74359608 C0.90091095 78.72264881 -0.07837372 78.70170155 -1.08733368 78.68011951 C-4.86694789 79.29956461 -6.35754473 80.21361392 -8.85808563 83.13422108 C-9.59245493 86.19629514 -9.55904819 89.18059426 -9.52214813 92.31781483 C-9.52693176 93.21033451 -9.53171539 94.10285419 -9.53664398 95.02241993 C-9.54004247 96.90776808 -9.5308435 98.79317519 -9.5099411 100.67841053 C-9.4832046 103.55890414 -9.50967252 106.43549021 -9.54167938 109.3158617 C-9.53837466 111.14985466 -9.53196712 112.98384518 -9.52214813 114.81781483 C-9.53226929 115.67628513 -9.54239044 116.53475544 -9.5528183 117.41924 C-9.4749701 121.40807731 -9.11362663 123.69253441 -7.08611298 127.19696522 C-2.06581607 130.20982681 2.72481074 129.66438574 8.45441437 129.44672108 C9.57654327 129.42416248 10.69867218 129.40160389 11.85480499 129.3783617 C14.61853973 129.31955884 17.37953991 129.23742509 20.14191437 129.13422108 C20.13081131 130.01261143 20.11970825 130.89100178 20.10826874 131.79601002 C20.00802663 140.07955611 19.93192914 148.36289811 19.88285351 156.64691162 C19.85677463 160.90572163 19.82140886 165.16402991 19.7647171 169.42255116 C19.71033474 173.53338828 19.68048096 177.64374326 19.66752815 181.75491238 C19.65829929 183.32223888 19.64027687 184.88953939 19.61326408 186.45666027 C19.57688779 188.65468916 19.57197212 190.85073386 19.57428741 193.049016 C19.56318436 194.29922031 19.5520813 195.54942463 19.54064178 196.83751392 C20.31046865 201.05838448 21.77338593 202.5542923 25.14191437 205.13422108 C28.85974041 205.19832153 31.09580215 205.14382003 33.83156586 202.50354481 C35.61927604 199.27107336 35.50210007 196.84913254 35.48249054 193.16254139 C35.48292862 192.46945377 35.4833667 191.77636616 35.48381805 191.06227589 C35.48173334 188.7786762 35.45841838 186.495817 35.43488312 184.21234608 C35.42928601 182.62622955 35.42501645 181.04010783 35.42201996 179.45398426 C35.41058016 175.28472985 35.38112063 171.11579029 35.34790802 166.94666004 C35.31718836 162.69021329 35.30351058 158.43371554 35.28839874 154.17718983 C35.25624986 145.82937318 35.20348919 137.4818726 35.14191437 129.13422108 C41.74191437 129.13422108 48.34191437 129.13422108 55.14191437 129.13422108 C55.1209671 131.80934803 55.10001984 134.48447498 55.07843781 137.24066639 C55.01219596 146.07352963 54.96799021 154.90640377 54.93466568 163.7394495 C54.91377983 169.09562016 54.88544373 174.45153659 54.84015656 179.80756092 C54.79673476 184.97523724 54.77278478 190.14266884 54.7624054 195.3105135 C54.75500746 197.2833361 54.74056117 199.25614513 54.71899414 201.22886372 C54.69000893 203.98960411 54.68595632 206.74932988 54.68781281 209.51019764 C54.66624115 210.73694958 54.66624115 210.73694958 54.6442337 211.98848438 C54.67072329 215.62257843 54.79914318 217.68845071 57.04920197 220.61462879 C59.26100942 222.2207002 60.40651052 223.05133005 63.14191437 223.13422108 C66.58752071 221.49345615 67.99866398 220.34909665 70.14191437 217.13422108 C70.32641632 214.29462114 70.39410344 211.55456284 70.36896515 208.71551991 C70.3692572 207.85676762 70.36954926 206.99801533 70.36985016 206.11324024 C70.36845592 203.27247511 70.35289026 200.43197169 70.33722687 197.59125233 C70.33349707 195.62255973 70.33064994 193.65386529 70.32865143 191.68517017 C70.32101233 186.50165152 70.30136143 181.3182448 70.27924347 176.13477039 C70.25879102 170.84619123 70.24965099 165.557594 70.23957062 160.2689867 C70.21811582 149.89067438 70.18293139 139.51247455 70.14191437 129.13422108 C76.74191437 129.13422108 83.34191437 129.13422108 90.14191437 129.13422108 C90.12620392 132.14257069 90.11049347 135.1509203 90.09430695 138.25043201 C90.04463668 148.18096085 90.01147561 158.11149513 89.98647785 168.04211521 C89.97081027 174.06409485 89.94955183 180.0859474 89.91559601 186.10785389 C89.88304187 191.91741914 89.86506959 197.72686201 89.85728264 203.53651142 C89.85173206 205.75493007 89.84089337 207.9733419 89.8247242 210.19170856 C89.80300267 213.29476457 89.79994527 216.39731244 89.8013382 219.50043201 C89.79055237 220.42112476 89.77976654 221.34181751 89.76865387 222.29041004 C89.77189569 227.18519398 89.77189569 227.18519398 91.51476288 231.67773914 C93.74751455 233.67630074 95.14849815 234.06294926 98.14191437 234.13422108 C101.94508015 232.45375248 103.59828063 230.94553288 105.14191437 227.13422108 C105.43273863 225.09065438 105.43273863 225.09065438 105.3824234 222.93274403 C105.38517273 222.10265827 105.38792206 221.27257252 105.3907547 220.41733265 C105.38356415 219.51534138 105.3763736 218.61335011 105.36896515 217.68402576 C105.3692572 216.72759174 105.36954926 215.77115772 105.36985016 214.78574085 C105.3684573 211.62576684 105.35289803 208.46602888 105.33722687 205.30609608 C105.33349658 203.1146301 105.33064968 200.92316246 105.32865143 198.73169422 C105.3210162 192.96457786 105.30136857 187.19756228 105.27924347 181.43048573 C105.25878272 175.54528638 105.24964922 169.66007074 105.23957062 163.77484608 C105.21812264 152.22791968 105.1829413 140.68109453 105.14191437 129.13422108 C111.41191437 129.13422108 117.68191437 129.13422108 124.14191437 129.13422108 C124.13525253 130.47170902 124.1285907 131.80919697 124.12172699 133.18721485 C124.06089057 145.79674538 124.01592945 158.40624609 123.98647785 171.01589012 C123.97082746 177.49851127 123.94960023 183.98101386 123.91559601 190.46356678 C123.88298081 196.72053091 123.86505664 202.97738105 123.85728264 209.23442364 C123.85174306 211.62061768 123.84092565 214.00680554 123.8247242 216.39295101 C123.80292171 219.73726437 123.79994869 223.08110775 123.8013382 226.42548084 C123.79055237 227.41019367 123.77976654 228.3949065 123.76865387 229.40945911 C123.79411341 235.07891681 124.37418511 239.14105853 127.14191437 244.13422108 C129.98275078 245.55463928 131.99668714 245.4487438 135.14191437 245.13422108 C138.29153519 242.75072424 139.42798948 240.94438328 140.14191437 237.13422108 C140.22804375 235.60908655 140.26394512 234.08066892 140.26216888 232.55310535 C140.26354355 231.63887806 140.26491821 230.72465076 140.26633453 229.78271961 C140.26273926 228.78722095 140.25914398 227.7917223 140.25543976 226.76605701 C140.2556588 225.18510242 140.2556588 225.18510242 140.25588226 223.57220936 C140.25518547 220.08765068 140.2474039 216.60314542 140.23957062 213.11859608 C140.23770561 210.70292661 140.2362821 208.28725677 140.2352829 205.8715868 C140.23146423 199.51266912 140.22163945 193.15377427 140.21057892 186.79486561 C140.20035085 180.30642474 140.19578228 173.81798018 140.19074249 167.32953358 C140.18001663 154.59775271 140.16294797 141.86598879 140.14191437 129.13422108 C146.41191437 129.13422108 152.68191437 129.13422108 159.14191437 129.13422108 C159.12620392 132.07674793 159.11049347 135.01927479 159.09430695 138.05096912 C159.04461142 147.76994649 159.01146548 157.48892944 158.98647785 167.20800018 C158.97081787 173.10103733 158.94957326 178.99394436 158.91559601 184.88690662 C158.88301482 190.5732835 158.86506386 196.25953518 158.85728264 201.94599819 C158.85173693 204.1161423 158.84090764 206.28627951 158.8247242 208.45637035 C158.80296672 211.49456468 158.79994678 214.53224075 158.8013382 217.57050037 C158.79055237 218.46889637 158.77976654 219.36729237 158.76865387 220.29291248 C158.79220694 225.04157428 158.97522318 228.32285759 162.14191437 232.13422108 C164.95087499 233.79281707 164.95087499 233.79281707 168.14191437 234.13422108 C171.08642331 232.82555044 172.68892868 232.04019245 174.14191437 229.13422108 C174.23333221 227.79109978 174.26385589 226.44355309 174.26216888 225.09732533 C174.26354355 224.25316059 174.26491821 223.40899586 174.26633453 222.53925037 C174.26273926 221.61136707 174.25914398 220.68348377 174.25543976 219.7274828 C174.2556588 218.26400913 174.2556588 218.26400913 174.25588226 216.77097034 C174.25518372 213.53526073 174.24739403 210.29960817 174.23957062 207.06390858 C174.23770623 204.82474264 174.23628243 202.58557629 174.2352829 200.3464098 C174.23145935 194.44449207 174.22163043 188.54259883 174.21057892 182.6406908 C174.20036131 176.62161052 174.19578453 170.60252628 174.19074249 164.58343983 C174.18000804 152.76702107 174.16241254 140.95062694 174.14191437 129.13422108 C180.74191437 129.13422108 187.34191437 129.13422108 194.14191437 129.13422108 C194.1209671 131.77381824 194.10001984 134.41341541 194.07843781 137.13300037 C194.01215961 145.85409679 193.96797566 154.57520434 193.93466568 163.2964859 C193.91379076 168.58424864 193.88547459 173.87175333 193.84015656 179.15936756 C193.79669581 184.26221026 193.77277654 189.36480476 193.7624054 194.46781826 C193.75501447 196.41469512 193.74058171 198.36155839 193.71899414 200.30832958 C193.68995715 203.03534139 193.68595849 205.7613276 193.68781281 208.48846912 C193.66624115 209.69580204 193.66624115 209.69580204 193.6442337 210.92752552 C193.67211065 214.71626294 193.98571062 216.8908377 196.05310822 220.11208057 C198.67024036 222.69401044 198.67024036 222.69401044 202.14191437 223.13422108 C206.42802684 221.53907323 206.42802684 221.53907323 209.14191437 218.13422108 C209.23518967 215.32691982 209.26767361 212.54461009 209.25543976 209.73724842 C209.2556588 208.43470867 209.2556588 208.43470867 209.25588226 207.10585499 C209.25518397 204.22726436 209.24739547 201.34873794 209.23957062 198.47015858 C209.23770614 196.4776154 209.23628238 194.48507176 209.2352829 192.49252796 C209.23146006 187.24163013 209.22163174 181.99075986 209.21057892 176.73987293 C209.2003598 171.38434694 209.1957842 166.0288165 209.19074249 160.67328358 C209.18000928 150.16024868 209.16241435 139.64724147 209.14191437 129.13422108 C215.74191437 129.13422108 222.34191437 129.13422108 229.14191437 129.13422108 C229.11573029 131.25883778 229.0895462 133.38345448 229.06256866 135.5724535 C228.97966949 142.59714568 228.92447088 149.62185963 228.88285351 156.64691162 C228.85677463 160.90572163 228.82140886 165.16402991 228.7647171 169.42255116 C228.71033474 173.53338828 228.68048096 177.64374326 228.66752815 181.75491238 C228.65829929 183.32223888 228.64027687 184.88953939 228.61326408 186.45666027 C228.57688779 188.65468916 228.57197212 190.85073386 228.57428741 193.049016 C228.55763283 194.92432247 228.55763283 194.92432247 228.54064178 196.83751392 C229.31046865 201.05838448 230.77338593 202.5542923 234.14191437 205.13422108 C237.85974041 205.19832153 240.09580215 205.14382003 242.83156586 202.50354481 C244.61927604 199.27107336 244.50210007 196.84913254 244.48249054 193.16254139 C244.48292862 192.46945377 244.4833667 191.77636616 244.48381805 191.06227589 C244.48173334 188.7786762 244.45841838 186.495817 244.43488312 184.21234608 C244.42928601 182.62622955 244.42501645 181.04010783 244.42201996 179.45398426 C244.41058016 175.28472985 244.38112063 171.11579029 244.34790802 166.94666004 C244.31718836 162.69021329 244.30351058 158.43371554 244.28839874 154.17718983 C244.25624992 145.82938929 244.20506426 137.48184438 244.14191437 129.13422108 C244.84276154 129.16040516 245.5436087 129.18658924 246.26569366 129.21356678 C249.45337087 129.31775648 252.64068962 129.3826169 255.82941437 129.44672108 C256.93220734 129.48861561 258.03500031 129.53051014 259.17121124 129.5736742 C265.58586976 129.68417785 265.58586976 129.68417785 271.36994171 127.19696522 C273.80899025 122.98122205 273.86253168 119.6147603 273.80597687 114.81781483 C273.8107605 113.92433842 273.81554413 113.03086201 273.82047272 112.11031055 C273.82386677 110.22674257 273.8146989 108.34311529 273.79376984 106.45966053 C273.76696402 103.57706027 273.79354884 100.69834229 273.82550812 97.8158617 C273.82220455 95.98317082 273.8157994 94.15048236 273.80597687 92.31781483 C273.8211586 91.02707302 273.8211586 91.02707302 273.83664703 89.71025562 C273.75643602 85.61639308 273.69009877 83.77449507 270.95905304 80.58466053 C267.80255268 78.95949642 265.93371327 78.66808634 262.40363312 78.74359608 C261.3369339 78.7564867 260.27023468 78.76937733 259.17121124 78.78265858 C257.51702179 78.83293201 257.51702179 78.83293201 255.82941437 78.88422108 C254.70728546 78.90226795 253.58515656 78.92031483 252.42902374 78.93890858 C249.6657799 78.98594251 246.90428739 79.05165791 244.14191437 79.13422108 C244.16286163 78.06462147 244.1838089 76.99502186 244.20539093 75.89301014 C244.27786062 71.91983935 244.323739 67.94672682 244.36164093 63.97308826 C244.38174065 62.25423829 244.40902525 60.53545656 244.44367218 58.81683826 C244.49226471 56.34433618 244.51489872 53.87273897 244.53253937 51.39984608 C244.55318451 50.63303516 244.57382965 49.86622425 244.5951004 49.07617664 C244.59658996 45.52417475 244.45587631 43.54579455 242.26984406 40.68011951 C239.72470807 38.83112903 238.30415391 38.13422108 235.14191437 38.13422108 C232.44632989 39.9108563 230.59549214 41.22706553 229.14191437 44.13422108 C229.05524182 46.76049241 229.02631301 49.35984591 229.04425812 51.98578358 C229.04567307 52.75981525 229.04708801 53.53384693 229.04854584 54.33133411 C229.05415033 56.80733549 229.06670354 59.28324696 229.07941437 61.75922108 C229.08442879 63.43630311 229.0889918 65.11338655 229.09308624 66.79047108 C229.10327101 70.90511705 229.12284543 75.01956823 229.14191437 79.13422108 C222.54191437 79.13422108 215.94191437 79.13422108 209.14191437 79.13422108 C209.18832062 76.58187733 209.23472687 74.02953358 209.28253937 71.39984608 C209.31374593 68.92428036 209.33802734 66.44873667 209.36164093 63.97308826 C209.38174065 62.25423829 209.40902525 60.53545656 209.44367218 58.81683826 C209.49226471 56.34433618 209.51489872 53.87273897 209.53253937 51.39984608 C209.55318451 50.63303516 209.57382965 49.86622425 209.5951004 49.07617664 C209.59658996 45.52417475 209.45587631 43.54579455 207.26984406 40.68011951 C204.72470807 38.83112903 203.30415391 38.13422108 200.14191437 38.13422108 C197.44632989 39.9108563 195.59549214 41.22706553 194.14191437 44.13422108 C194.05524182 46.76049241 194.02631301 49.35984591 194.04425812 51.98578358 C194.04567307 52.75981525 194.04708801 53.53384693 194.04854584 54.33133411 C194.05415033 56.80733549 194.06670354 59.28324696 194.07941437 61.75922108 C194.08442879 63.43630311 194.0889918 65.11338655 194.09308624 66.79047108 C194.10327101 70.90511705 194.12284543 75.01956823 194.14191437 79.13422108 C187.54191437 79.13422108 180.94191437 79.13422108 174.14191437 79.13422108 C174.17671906 76.58187733 174.21152374 74.02953358 174.24738312 71.39984608 C174.27078813 68.92427152 174.2889993 66.44870934 174.30670929 63.97308826 C174.32178369 62.25428202 174.34224666 60.53551417 174.36823273 58.81683826 C174.40467602 56.34441111 174.42165394 53.87249307 174.43488312 51.39984608 C174.45036697 50.63303516 174.46585083 49.86622425 174.48180389 49.07617664 C174.48282391 45.83306103 174.36736485 43.53875421 172.77204132 40.67621326 C170.55557755 38.57958526 169.18625745 38.20670544 166.14191437 38.13422108 C163.44757897 39.32474137 161.70494347 40.32670284 160.00959015 42.75824451 C158.77483601 46.13940018 158.89592687 49.41272285 158.94660187 52.96234608 C158.94943176 53.71135181 158.95226166 54.46035755 158.95517731 55.23206043 C158.96634177 57.61627883 158.99143906 60.00011687 159.01691437 62.38422108 C159.02694901 64.00400731 159.03607402 65.62379944 159.04425812 67.24359608 C159.0645645 71.20740097 159.10371896 75.17038696 159.14191437 79.13422108 C152.87191437 79.13422108 146.60191437 79.13422108 140.14191437 79.13422108 C140.16511749 76.81004139 140.18832062 74.4858617 140.21222687 72.09125233 C140.22784138 69.83075983 140.23997586 67.57027343 140.25177765 65.30975819 C140.26181163 63.74332441 140.27544191 62.17690925 140.29279327 60.61053944 C140.31715662 58.35406354 140.32842353 56.09783613 140.33722687 53.84125233 C140.34754944 53.14522404 140.35787201 52.44919575 140.36850739 51.73207569 C140.36941717 47.75533455 140.00716322 44.67060699 138.14191437 41.13422108 C135.9811997 39.05445395 135.9811997 39.05445395 133.14191437 38.13422108 C129.61027141 38.89594799 127.70320024 39.5729352 125.14191437 42.13422108 C123.74035051 45.86951317 124.01531545 49.81157275 124.04425812 53.74359608 C124.04567307 54.47040577 124.04708801 55.19721546 124.04854584 55.94604969 C124.05412645 58.25881602 124.06667533 60.5714842 124.07941437 62.88422108 C124.08443188 64.45583426 124.08899435 66.02744896 124.09308624 67.59906483 C124.10323703 71.4441848 124.12281605 75.28909356 124.14191437 79.13422108 C117.87191437 79.13422108 111.60191437 79.13422108 105.14191437 79.13422108 C105.17671906 76.73785389 105.21152374 74.3414867 105.24738312 71.87250233 C105.27080298 69.54251769 105.28900566 67.21254635 105.30670929 64.88251209 C105.32176312 63.26754319 105.34221085 61.65261495 105.36823273 60.03778553 C105.40476723 57.71175553 105.42167451 55.38626767 105.43488312 53.06000233 C105.45036697 52.34210026 105.46585083 51.62419819 105.48180389 50.88454151 C105.4832806 46.45083458 104.91286807 43.63405165 102.14191437 40.13422108 C99.33295374 38.47562508 99.33295374 38.47562508 96.14191437 38.13422108 C93.19740543 39.44289172 91.59490005 40.22824971 90.14191437 43.13422108 C90.05515899 45.83315289 90.02633539 48.50591338 90.04425812 51.20453358 C90.04567307 52.0007613 90.04708801 52.79698902 90.04854584 53.61734486 C90.05415092 56.16467488 90.06670423 58.71191755 90.07941437 61.25922108 C90.08442872 62.98448023 90.08899174 64.70974075 90.09308624 66.43500233 C90.10327184 70.66813611 90.12284617 74.90108062 90.14191437 79.13422108 C83.54191437 79.13422108 76.94191437 79.13422108 70.14191437 79.13422108 C70.18832062 76.66566639 70.23472687 74.1971117 70.28253937 71.65375233 C70.31376341 69.25427778 70.33803483 66.85482615 70.36164093 64.455266 C70.38171644 62.79175095 70.40898313 61.12830611 70.44367218 59.46503162 C70.49237203 57.06942868 70.51492292 54.67476116 70.53253937 52.27875233 C70.56350708 51.16908855 70.56350708 51.16908855 70.5951004 50.03700733 C70.59668497 46.36384294 70.25823467 44.31730267 68.26984406 41.18768787 C65.77706604 38.78213993 64.60119181 38.13422108 61.14191437 38.13422108 C57.42930209 39.88535633 57.42930209 39.88535633 55.14191437 43.13422108 C55.05515899 45.83315289 55.02633539 48.50591338 55.04425812 51.20453358 C55.04638054 52.39887516 55.04638054 52.39887516 55.04854584 53.61734486 C55.05415092 56.16467488 55.06670423 58.71191755 55.07941437 61.25922108 C55.08442872 62.98448023 55.08899174 64.70974075 55.09308624 66.43500233 C55.10327184 70.66813611 55.12284617 74.90108062 55.14191437 79.13422108 C48.54191437 79.13422108 41.94191437 79.13422108 35.14191437 79.13422108 C35.18832062 76.66566639 35.23472687 74.1971117 35.28253937 71.65375233 C35.31376341 69.25427778 35.33803483 66.85482615 35.36164093 64.455266 C35.38171644 62.79175095 35.40898313 61.12830611 35.44367218 59.46503162 C35.49237203 57.06942868 35.51492292 54.67476116 35.53253937 52.27875233 C35.56350708 51.16908855 35.56350708 51.16908855 35.5951004 50.03700733 C35.59668428 46.36543764 35.25628635 44.31485169 33.27375031 41.18378162 C29.62994411 37.68060331 26.33221841 37.24435622 22.14191437 40.13422108 Z M84.14191437 288.13422108 C73.17907677 303.12467168 69.03521523 321.10167296 71.60285187 339.42328358 C75.2821373 355.82856805 85.05940937 369.50894067 98.82160187 378.97797108 C113.23822308 388.00269947 129.41171755 390.65869457 146.11066437 387.47406483 C162.69860903 383.23533118 176.16116071 372.87888408 185.20319366 358.46820545 C193.55734507 344.35024767 195.41366202 327.78994015 191.57941437 311.94672108 C187.26322269 295.69578509 177.61536312 282.70864299 163.14191437 274.13422108 C137.55375615 259.55214954 102.97734104 265.18572296 84.14191437 288.13422108 Z " fill="#7FA9DA" transform="translate(123.85808563232422,42.86577892303467)"/>
<path d="M0 0 C9.17133107 8.53882548 13.85433234 20.56697319 14.3125 32.9375 C14.12893724 46.48035283 9.41938326 57.47522254 0.296875 67.30078125 C-8.86559251 75.80649847 -21.0972198 79.80714985 -33.5078125 79.58984375 C-47.49283285 78.35322619 -58.36512867 73.68648098 -67.9375 63.375 C-75.58359577 53.04694036 -78.94366253 41.1676379 -77.9375 28.375 C-75.46163464 14.24800356 -69.45625494 3.45588322 -57.5625 -5 C-38.57733835 -16.71636724 -16.8007946 -14.09098902 0 0 Z " fill="#2653A5" transform="translate(287.9375,336.625)"/>
<path d="M0 0 C83.16 0 166.32 0 252 0 C252 6.6 252 13.2 252 20 C168.84 20 85.68 20 0 20 C0 13.4 0 6.8 0 0 Z " fill="#2654A4" transform="translate(130,137)"/>
</svg>
