<?xml version="1.0" encoding="UTF-8"?>
<svg version="1.1" xmlns="http://www.w3.org/2000/svg" width="64" height="64">
<path d="M0 0 C0.99 0 1.98 0 3 0 C3 0.66 3 1.32 3 2 C5.31 2.33 7.62 2.66 10 3 C10 5.31 10 7.62 10 10 C10.61875 9.525625 11.2375 9.05125 11.875 8.5625 C16.65503021 6.17248489 21.86053029 5.06459003 27.09765625 6.625 C31.42630688 8.83068185 33.3471244 11.52751308 35 16 C35 16.66 35 17.32 35 18 C36.65 18.33 38.3 18.66 40 19 C39.67 20.32 39.34 21.64 39 23 C38.37867188 23.06058594 37.75734375 23.12117188 37.1171875 23.18359375 C34.77955557 23.80584954 34.77955557 23.80584954 33.9453125 26.22265625 C33.67460938 27.15980469 33.40390625 28.09695312 33.125 29.0625 C30.44338067 37.12830814 26.47562837 42.84687313 19 47 C9.74278439 50.08573854 -0.86961912 48.55689143 -9.4921875 44.4453125 C-12.72404764 42.58271398 -15.32761101 40.59815597 -18 38 C-17 35 -17 35 -14.71484375 33.61328125 C-13.79832031 33.18402344 -12.88179687 32.75476562 -11.9375 32.3125 C-10.55884766 31.65701172 -10.55884766 31.65701172 -9.15234375 30.98828125 C-8.08693359 30.49908203 -8.08693359 30.49908203 -7 30 C-7 25.20154329 -8.10597965 24.59560104 -11 21 C-11.75 18.1875 -11.75 18.1875 -12 16 C-9.36 16 -6.72 16 -4 16 C-4 14.35 -4 12.7 -4 11 C-0.7 11.66 2.6 12.32 6 13 C5.67 11.35 5.34 9.7 5 8 C-1.435 8.495 -1.435 8.495 -8 9 C-8.66 7.35 -9.32 5.7 -10 4 C-8.68 4 -7.36 4 -6 4 C-5.34 4.66 -4.68 5.32 -4 6 C-2.68 5.34 -1.36 4.68 0 4 C-0.33 3.01 -0.66 2.02 -1 1 C-0.67 0.67 -0.34 0.34 0 0 Z " fill="#1B1515" transform="translate(21,8)"/>
<path d="M0 0 C0.99 0 1.98 0 3 0 C3 0.66 3 1.32 3 2 C5.31 2.33 7.62 2.66 10 3 C10 5.31 10 7.62 10 10 C10.61875 9.525625 11.2375 9.05125 11.875 8.5625 C16.65503021 6.17248489 21.86053029 5.06459003 27.09765625 6.625 C30.18050931 8.19588054 32.00814225 10.01145004 34 12.8125 C35.1898208 16.6050538 34.84641589 19.15265504 34 23 C24.67387579 23.72828736 16.33095635 21.96322619 8.875 16.0625 C5.72007277 13.35288547 5.91933671 12.59668357 5 8 C-1.435 8.495 -1.435 8.495 -8 9 C-8.66 7.35 -9.32 5.7 -10 4 C-8.68 4 -7.36 4 -6 4 C-5.34 4.66 -4.68 5.32 -4 6 C-2.68 5.34 -1.36 4.68 0 4 C-0.33 3.01 -0.66 2.02 -1 1 C-0.67 0.67 -0.34 0.34 0 0 Z " fill="#D10C0C" transform="translate(21,8)"/>
<path d="M0 0 C3.0625 2.5625 3.0625 2.5625 5 5 C4.01 5.66 3.02 6.32 2 7 C2.66 7.66 3.32 8.32 4 9 C3.625 11.125 3.625 11.125 3 13 C1.68 12.67 0.36 12.34 -1 12 C-1 10 -1 8 -1 6 C-1.969375 6.04125 -2.93875 6.0825 -3.9375 6.125 C-8.44889724 6.14348933 -12.64837652 5.10517422 -17 4 C-12.04364634 -1.48739155 -7.01686401 -1.88531399 0 0 Z " fill="#403030" transform="translate(49,15)"/>
<path d="M0 0 C4.29 0 8.58 0 13 0 C12.01 0.66 11.02 1.32 10 2 C10.66 2.66 11.32 3.32 12 4 C11.625 6.125 11.625 6.125 11 8 C9.68 7.67 8.36 7.34 7 7 C7 5 7 3 7 1 C4.69 1 2.38 1 0 1 C0 0.67 0 0.34 0 0 Z " fill="#542E2E" transform="translate(41,20)"/>
<path d="M0 0 C2.97 0.495 2.97 0.495 6 1 C6 1.99 6 2.98 6 4 C5.34 4.66 4.68 5.32 4 6 C1.375 5.625 1.375 5.625 -1 5 C-0.67 3.35 -0.34 1.7 0 0 Z " fill="#251D1D" transform="translate(23,21)"/>
<path d="M0 0 C2.97 0.495 2.97 0.495 6 1 C5.67 2.98 5.34 4.96 5 7 C1.125 6.125 1.125 6.125 0 5 C-0.04063832 3.33382885 -0.042721 1.66611905 0 0 Z " fill="#0A0808" transform="translate(17,19)"/>
<path d="M0 0 C1.65 0 3.3 0 5 0 C5.33 2.64 5.66 5.28 6 8 C5.01 8 4.02 8 3 8 C1.99666017 5.99332033 1.54184994 4.16739976 1 2 C0.67 1.34 0.34 0.68 0 0 Z " fill="#AC0F0F" transform="translate(50,21)"/>
<path d="M0 0 C3.73639216 1.24546405 4.18756513 2.63404953 6 6 C4.35 6 2.7 6 1 6 C0.34 4.35 -0.32 2.7 -1 1 C-0.67 0.67 -0.34 0.34 0 0 Z " fill="#D30000" transform="translate(12,11)"/>
<path d="M0 0 C1.65 0.33 3.3 0.66 5 1 C4.67 2.32 4.34 3.64 4 5 C2.35 5.33 0.7 5.66 -1 6 C-0.67 4.02 -0.34 2.04 0 0 Z " fill="#020000" transform="translate(56,26)"/>
<path d="M0 0 C0.33 1.32 0.66 2.64 1 4 C-2.3 4 -5.6 4 -9 4 C-6.01193893 2.50596946 -3.10343799 1.20689255 0 0 Z " fill="#C40404" transform="translate(54,27)"/>
</svg>
