<?xml version="1.0" encoding="UTF-8"?>
<svg version="1.1" xmlns="http://www.w3.org/2000/svg" width="48" height="48">
<path d="M0 0 C5.67199518 3.34164057 11.09080645 8.91456074 13.453125 15.125 C14.2427147 22.80479879 14.99114854 31.12660045 10.015625 37.515625 C5.30970125 42.36272646 1.02624965 46.77098074 -5.9375 47.4609375 C-14.56427013 47.54825299 -21.02153684 47.44300195 -27.5078125 41.25390625 C-33.89704091 34.35614742 -35.02726084 28.92136848 -34.8515625 19.5703125 C-34.15627297 11.70819245 -30.49933481 7.57541296 -24.64453125 2.5703125 C-17.80587739 -2.14160915 -7.80747669 -2.68232328 0 0 Z M-22.640625 9.0390625 C-27.84117735 14.90034076 -28.90874312 18.28376461 -28.82421875 26.14453125 C-28.31940308 31.56952214 -25.53652412 34.08822473 -21.921875 37.875 C-17.95616983 40.95943735 -13.51041785 41.9562242 -8.546875 42.125 C-3.51351783 41.19711155 0.98409228 38.88311878 4.453125 35.125 C7.31157234 29.99982212 9.32403319 24.95399648 8.12109375 19.0703125 C6.34673649 13.90288609 3.77682365 9.61889533 -0.921875 6.6875 C-8.66745147 3.34888945 -16.1546391 3.10970972 -22.640625 9.0390625 Z " fill="#1691D0" transform="translate(34.546875,0.875)"/>
<path d="M0 0 C2.475 0.99 2.475 0.99 5 2 C5.04254356 3.99954746 5.04080783 6.00041636 5 8 C4 9 4 9 0.9375 9.0625 C-0.031875 9.041875 -1.00125 9.02125 -2 9 C-2.66 7.35 -3.32 5.7 -4 4 C-2.68 2.68 -1.36 1.36 0 0 Z " fill="#168FCC" transform="translate(23,19)"/>
</svg>
