<?xml version="1.0" encoding="UTF-8"?>
<svg version="1.1" xmlns="http://www.w3.org/2000/svg" width="200" height="200">
<path d="M0 0 C66 0 132 0 200 0 C200 66 200 132 200 200 C134 200 68 200 0 200 C0 134 0 68 0 0 Z " fill="#FCFEFE" transform="translate(0,0)"/>
<path d="M0 0 C4.13265779 1.82605809 7.17524205 4.48813877 10 8 C10.71308476 10.301319 11.17343051 12.53439868 11.54296875 14.9140625 C11.93119301 17.2908715 11.93119301 17.2908715 14 20 C19.57920979 20.70683716 23.40931689 19.22515166 28.1875 16.5625 C36.56925389 12.03545646 44.19325882 10.38120482 53.7265625 12.6484375 C59.91485601 14.8900175 64.4178677 18.33604391 69 23 C69.495 23.4846875 69.99 23.969375 70.5 24.46875 C76.16597989 30.53944274 77.6143016 38.10041907 77.34375 46.171875 C76.26732407 55.02792468 72.38644682 62.78257068 66 69 C56.53899405 75.92446506 48.4963152 76.67988961 37 76 C34.1179822 75.36675387 32.61610594 74.5483076 30 73 C29.03900391 72.52433594 29.03900391 72.52433594 28.05859375 72.0390625 C20.55680278 68.02482141 15.75280344 60.95166525 13 53 C12.68115234 50.22924805 12.68115234 50.22924805 12.5859375 47.26171875 C12.54726562 46.19501953 12.50859375 45.12832031 12.46875 44.02929688 C12.4378125 42.92650391 12.406875 41.82371094 12.375 40.6875 C12.33632812 39.56537109 12.29765625 38.44324219 12.2578125 37.28710938 C12.16377989 34.52490148 12.07812659 31.762696 12 29 C8.05448165 27.68482722 3.8231584 27.0884208 0 29 C-6.10685229 29.50890436 -9.12959772 29.0775461 -14 25 C-17.82699687 20.7771069 -18.4215869 16.698881 -18.34765625 11.02734375 C-17.57010253 6.4930698 -14.08676246 3.88115875 -10.6875 1.125 C-7.02666217 -0.40744374 -3.9130482 -0.58177702 0 0 Z " fill="#048ACF" transform="translate(122,110)"/>
<path d="M0 0 C5.46114647 2.4823393 10.28924046 7.57848091 13 13 C13.77138774 18.80005467 13.86759236 23.59710502 10.3125 28.4375 C5.90423933 33.49768654 1.31675524 37.63220471 -5.61328125 38.22265625 C-12.07125192 37.83947709 -15.82632161 36.52453034 -20.40625 31.87890625 C-24.78888919 26.71211838 -25.554795 22.32103967 -25.34765625 15.68359375 C-24.6396428 10.21836634 -22.01493377 6.69670757 -17.875 3.125 C-12.25462767 -1.02918825 -6.83463974 -0.58415724 0 0 Z " fill="#068BCF" transform="translate(43,39)"/>
<path d="M0 0 C4.28045924 2.73668706 7.17144904 5.16975773 9.3828125 9.8359375 C10.18447393 15.60645537 10.22722962 21.01719293 7.7578125 26.3359375 C2.57994139 31.78632815 -0.86814035 34.59406349 -8.4921875 35.0859375 C-13.91444586 34.99539886 -17.29482139 32.97798096 -21.3671875 29.4609375 C-25.52589602 24.60911089 -26.02058349 20.50754286 -25.86328125 14.26171875 C-25.27635799 8.4763323 -22.07046461 4.95754838 -18.1171875 1.03515625 C-13.36687611 -2.76261874 -5.28280504 -2.34966553 0 0 Z " fill="#068BCF" transform="translate(29.6171875,88.1640625)"/>
<path d="M0 0 C4.97116008 2.48963482 9.67223938 6.49954018 11.6875 11.8125 C12.65645107 18.59515747 11.8686738 23.37391036 8 29 C3.61913852 33.52614515 0.12507507 35.20997331 -6.125 35.5 C-11.01601219 35.46753753 -13.85907186 35.06479734 -17.625 31.875 C-21.98479528 27.26686195 -24.12233683 23.38921699 -24.4375 17 C-24.24800406 11.50461775 -22.48393684 8.38665472 -18.50390625 4.5625 C-12.86700388 -0.38560382 -7.27950187 -1.06262851 0 0 Z " fill="#058BCF" transform="translate(81,12)"/>
<path d="M0 0 C6.33299833 3.53746978 6.33299833 3.53746978 7.46484375 6.9921875 C8.36309119 11.84970037 9.19326747 16.87250754 6.6328125 21.3046875 C3.86213107 24.57601186 1.00186351 27.88937544 -3.4375 28.46875 C-10.05035768 28.49889981 -13.37302048 27.62111722 -18.3828125 23.16796875 C-21.65966218 19.42299768 -21.46942465 15.4230855 -21.4140625 10.67578125 C-20.88439939 5.95295182 -18.45215344 3.33209311 -15.0078125 0.29296875 C-10.14020473 -1.61174733 -4.92992794 -1.92321365 0 0 Z " fill="#078BD0" transform="translate(42.1328125,134.83203125)"/>
<path d="M0 0 C4.34468141 2.1723407 7.60032162 4.75441518 10 9 C10.81695863 13.97677862 10.57068797 17.81472498 8.375 22.375 C4.3398049 26.83495247 1.13522548 29.2195373 -4.9375 29.625 C-9.72396759 29.43007598 -12.32672032 28.00940245 -15.66015625 24.62890625 C-19.1625142 20.37093755 -19.59993699 15.90781605 -19.52734375 10.51171875 C-18.59694533 6.08026555 -15.53078572 3.61214237 -12 1 C-8.28795513 -0.85602244 -4.0512695 -0.44875601 0 0 Z " fill="#068BCF" transform="translate(120,12)"/>
<path d="M0 0 C3.68623011 1.61272567 4.75355 2.630325 7 6 C7.43121354 11.34704794 7.46830537 14.66461829 4 19 C1.37862406 21.81555194 -0.03096977 22.00393267 -3.9375 22.5 C-7.40717916 22.37723668 -7.98445528 22.01250336 -10.875 19.6875 C-14.04536558 15.67792 -15.54731807 13.31442499 -15.36328125 8.07421875 C-14.86909736 5.25258814 -13.73466109 3.1392732 -11.7578125 1.06640625 C-8.10890499 -1.1472643 -4.0739668 -0.68346154 0 0 Z " fill="#0A8DD0" transform="translate(68,163)"/>
<path d="M0 0 C3.72950636 3.18562001 4.84319018 5.1019074 5.6875 9.9375 C5.38489317 14.07047217 3.77562291 16.75533016 0.91015625 19.6953125 C-2.00075343 21.6835412 -4.3325384 21.97377002 -7.80859375 21.6796875 C-11.18256942 20.63321376 -12.9154777 18.8946258 -14.9609375 16.06640625 C-16.84215509 12.32518781 -16.72744029 10.16624894 -16 6 C-12.26145705 -0.54245016 -7.14946183 -2.22551341 0 0 Z " fill="#0C8ED0" transform="translate(151,30)"/>
<path d="M0 0 C3.44652326 2.44128731 4.78056289 3.82966874 5.5625 8 C4.84202557 11.8425303 3.99097304 13.45767292 1 16 C-3.9796898 16.79042695 -5.83892595 16.75825244 -10.0625 14 C-12.35652651 10.44795895 -12.41008783 8.83307702 -11.56640625 4.8046875 C-11 3 -11 3 -9.9375 1 C-6.68589178 -0.6782494 -3.50401268 -0.7226174 0 0 Z " fill="#0C8ED0" transform="translate(96,174)"/>
<path d="M0 0 C2.9375 1.5625 2.9375 1.5625 5 4 C5.625 7.4375 5.625 7.4375 5 11 C2.54999553 14.38677089 1.13607554 15.78698584 -3 16.5625 C-6.8425303 15.84202557 -8.45767292 14.99097304 -11 12 C-11.66017005 9.19858274 -11.60984064 6.80756825 -11 4 C-8.1553332 -0.55146687 -5.11689336 -0.71816047 0 0 Z " fill="#0D8ED1" transform="translate(168,52)"/>
<path d="M0 0 C2.4375 1.6875 2.4375 1.6875 4 4 C3.82813436 7.52324572 2.98272184 9.02591724 1 12 C-2.42201828 12.37331109 -4.90185629 12.63763183 -7.9375 10.875 C-9.50422245 8.11019567 -9.38976435 6.11811483 -9 3 C-6.79244709 -0.67925486 -4.01747809 -0.57392544 0 0 Z " fill="#0F8FD1" transform="translate(121,174)"/>
<path d="M0 0 C2 2 2 2 2.375 5.4375 C2 9 2 9 0.375 11 C-2.83596428 12.35198496 -4.69946166 12.00451167 -8 11 C-10.31282587 7.53076119 -10.42478586 6.07794425 -10 2 C-7.65131237 -2.28290097 -4.2151329 -0.99630414 0 0 Z " fill="#1491D2" transform="translate(179,76)"/>
<path d="M0 0 C2.5 0.25 2.5 0.25 4.5 2.25 C4.75 5.25 4.75 5.25 4.5 8.25 C2.5 10.25 2.5 10.25 -0.5 10.5625 C-1.49 10.459375 -2.48 10.35625 -3.5 10.25 C-5.5 7.25 -5.5 7.25 -5.25 4.6875 C-4.24098289 1.40819438 -3.4742892 0.34742892 0 0 Z " fill="#1391D2" transform="translate(178.5,96.75)"/>
<path d="M0 0 C0.66 0.33 1.32 0.66 2 1 C1.43410156 1.49628906 0.86820313 1.99257812 0.28515625 2.50390625 C-4.76084166 6.92595844 -4.76084166 6.92595844 -7 13 C-7 13.99 -7 14.98 -7 16 C-7.33 16 -7.66 16 -8 16 C-8.66964286 8.23214286 -8.66964286 8.23214286 -5.6875 4.625 C-3 2 -3 2 0 0 Z " fill="#51ADDD" transform="translate(112,111)"/>
<path d="M0 0 C0.33 0 0.66 0 1 0 C1 5.28 1 10.56 1 16 C0.01 16.33 -0.98 16.66 -2 17 C-1.34 11.39 -0.68 5.78 0 0 Z " fill="#E8F4FA" transform="translate(199,148)"/>
</svg>
